<svg width="37" height="36" viewBox="0 0 37 36" fill="none" xmlns="http://www.w3.org/2000/svg">
<path d="M35.7166 19.1272L35.7305 19.1133C35.7517 19.0891 35.7708 19.0631 35.7874 19.0355C35.7944 19.0285 35.7944 19.0216 35.8013 19.0146C35.8152 18.9869 35.8374 18.9577 35.8513 18.9299C35.8521 18.9247 35.8545 18.9198 35.8583 18.916C35.8722 18.8883 35.886 18.8591 35.9013 18.8244C35.9013 18.8174 35.9013 18.8174 35.9083 18.8105C35.9222 18.7827 35.9291 18.7466 35.9444 18.7119C35.9444 18.7049 35.9444 18.698 35.9513 18.698C35.9616 18.6659 35.9686 18.6329 35.9722 18.5994C35.9709 18.5869 35.9733 18.5743 35.9791 18.5632C35.986 18.5355 35.986 18.5063 35.993 18.4785C36.0024 18.3987 36.0024 18.3181 35.993 18.2382C35.9918 18.2095 35.9871 18.1811 35.9791 18.1535C35.9804 18.141 35.978 18.1285 35.9722 18.1174C35.9652 18.0813 35.9583 18.0535 35.9513 18.0188C35.9513 18.0118 35.9513 18.0049 35.9444 18.0049C35.9355 17.971 35.9234 17.9379 35.9083 17.9063C35.9083 17.8993 35.9083 17.8993 35.9013 17.8924C35.8874 17.8646 35.8735 17.8285 35.8583 17.8007C35.8575 17.7955 35.8551 17.7906 35.8513 17.7868C35.8373 17.7571 35.8206 17.7287 35.8013 17.7021C35.7944 17.6952 35.7944 17.6882 35.7874 17.6813C35.7702 17.6541 35.7511 17.6282 35.7305 17.6035L35.7166 17.5896C35.6904 17.5559 35.6621 17.5239 35.6319 17.4938L28.6233 10.4879C28.3933 10.2673 28.086 10.1456 27.7674 10.1489C27.4487 10.1522 27.144 10.2802 26.9186 10.5056C26.6933 10.7309 26.5652 11.0356 26.5619 11.3543C26.5586 11.673 26.6803 11.9803 26.901 12.2102L31.8331 17.1424H12.2255C11.9031 17.1424 11.594 17.2704 11.3661 17.4983C11.1382 17.7262 11.0101 18.0354 11.0101 18.3577C11.0101 18.68 11.1382 18.9891 11.3661 19.217C11.594 19.445 11.9031 19.573 12.2255 19.573H31.8401L26.9427 24.4704C26.8296 24.583 26.7398 24.7168 26.6784 24.8642C26.617 25.0115 26.5853 25.1695 26.5849 25.3291C26.5843 25.6514 26.7117 25.9608 26.9392 26.1892C27.0518 26.3023 27.1856 26.3921 27.333 26.4535C27.4803 26.5149 27.6383 26.5466 27.7979 26.5469C28.1202 26.5476 28.4296 26.4202 28.658 26.1927L35.6235 19.2272C35.6596 19.1841 35.6874 19.1605 35.7166 19.1272Z" stroke="#1A91FA" stroke-width="0.2" stroke-miterlimit="10"/>
<path d="M7.59747 3.43064H16.6686C16.991 3.43064 17.3001 3.3026 17.528 3.07469C17.7559 2.84677 17.884 2.53765 17.884 2.21532C17.884 1.893 17.7559 1.58388 17.528 1.35596C17.3001 1.12804 16.991 1 16.6686 1H7.59747C5.84861 1.00294 4.17223 1.69897 2.9356 2.9356C1.69897 4.17223 1.00294 5.84861 1 7.59747L1 29.1191C1.00294 30.8679 1.69897 32.5443 2.9356 33.781C4.17223 35.0176 5.84861 35.7136 7.59747 35.7166H16.5186C16.841 35.7166 17.1501 35.5885 17.378 35.3606C17.6059 35.1327 17.7339 34.8236 17.7339 34.5012C17.7339 34.1789 17.6059 33.8698 17.378 33.6419C17.1501 33.414 16.841 33.2859 16.5186 33.2859H7.59747C6.49236 33.2859 5.43251 32.8469 4.65108 32.0655C3.86965 31.284 3.43064 30.2242 3.43064 29.1191V7.59747C3.43064 6.49236 3.86965 5.43251 4.65108 4.65108C5.43251 3.86965 6.49236 3.43064 7.59747 3.43064Z" stroke="#1A91FA" stroke-width="0.2" stroke-miterlimit="10"/>
</svg>
